Coordinates
version=1
nRows=7
nColumns=40
inDegrees=yes

Units are S.I. units (second, meters, Newtons, ...)
Angles are in degrees.

endheader
time	pelvis_tilt	pelvis_list	pelvis_rotation	pelvis_tx	pelvis_ty	pelvis_tz	hip_flexion_r	hip_adduction_r	hip_rotation_r	knee_angle_r	knee_angle_r_beta	ankle_angle_r	subtalar_angle_r	mtp_angle_r	hip_flexion_l	hip_adduction_l	hip_rotation_l	knee_angle_l	knee_angle_l_beta	ankle_angle_l	subtalar_angle_l	mtp_angle_l	lumbar_extension	lumbar_bending	lumbar_rotation	arm_flex_r	arm_add_r	arm_rot_r	elbow_flex_r	pro_sup_r	wrist_flex_r	wrist_dev_r	arm_flex_l	arm_add_l	arm_rot_l	elbow_flex_l	pro_sup_l	wrist_flex_l	wrist_dev_l
     10.42342857	     -7.40416315	     -3.01564379	    -14.88723760	      0.94327477	      0.92421572	      0.40714040	     26.01660481	     -1.37112620	     -5.05668615	     13.22905921	     13.22905921	      5.67741512	     15.66853438	      9.20015880	     12.45199400	     -3.54464488	    -12.06779032	     21.30050216	     21.30050216	     17.31627997	    -15.74762246	      1.60755268	    -10.14688478	      5.53333877	      2.92069503	    -17.19533082	    -10.40837633	    -10.83514146	     30.46916383	     46.18012703	      0.00000000	      0.00000000	     43.79447456	    -24.69753559	     -9.91290652	     75.44642667	     48.32076311	      0.00000000	      0.00000000
     10.44685714	     -7.31375998	     -2.75259657	    -14.85245490	      0.94473222	      0.92324354	      0.41035023	     25.85505785	     -1.33272639	     -4.94507373	     12.68810295	     12.68810295	      5.14412336	     16.04309380	      9.42469890	     11.92116154	     -3.34884719	    -12.11314208	     21.26380257	     21.26380257	     17.62777021	    -15.66002526	      1.37820628	     -9.93096205	      5.44166179	      3.00371063	    -16.67899567	    -10.28697774	    -10.68178823	     30.58669128	     46.16799527	      0.00000000	      0.00000000	     44.42415681	    -24.63701652	    -10.18919768	     76.24727410	     48.35502321	      0.00000000	      0.00000000
     10.47028571	     -7.30382823	     -2.59472006	    -14.74120960	      0.94666458	      0.92227972	      0.41377732	     25.81816905	     -1.25220445	     -4.82986161	     12.83490166	     12.83490166	      4.88991773	     16.08949633	      9.40185422	     11.45750595	     -3.28215013	    -12.01452071	     21.27957270	     21.27957270	     17.98902301	    -15.67466395	      1.23433914	     -9.56410007	      5.55023301	      3.08651933	    -16.29062108	    -10.27523310	    -10.65259798	     30.70769105	     46.16399170	      0.00000000	      0.00000000	     44.69060783	    -24.56785052	    -10.23440698	     76.49545853	     48.36383514	      0.00000000	      0.00000000
     10.49371429	     -7.02275714	     -2.34909818	    -14.52316517	      0.94915629	      0.92153689	      0.41737121	     25.54751624	     -1.32918568	     -4.37893715	     13.35314230	     13.35314230	      3.18827752	     15.39644288	      3.35075008	     10.61936688	     -3.06275722	    -12.05435146	     21.14841867	     21.14841867	     18.32903610	    -15.32446415	      1.10122034	     -9.57587595	      5.41312323	      2.37589558	    -14.98176817	    -10.45680981	     -9.75718695	     30.08612202	     46.13853669	      0.00000000	      0.00000000	     43.85241230	    -24.57315678	    -12.52330813	     79.68139285	     48.54185752	      0.00000000	      0.00000000
     10.51714286	     -6.86168763	     -2.23608143	    -14.20414503	      0.95187881	      0.92095534	      0.42124358	     25.54753881	     -1.34170613	     -4.02485514	     14.64844425	     14.64844425	      3.45840801	     14.51162128	      2.33476818	      9.88600757	     -3.00493892	    -11.84199273	     21.03699442	     21.03699442	     18.63342238	    -15.20093788	      1.09873223	     -9.40932406	      5.47892609	      2.52576971	    -14.65200734	    -10.50373623	     -9.61954985	     30.03890473	     46.13400467	      0.00000000	      0.00000000	     44.06755473	    -24.23910000	    -12.48219077	     80.11115105	     48.54481277	      0.00000000	      0.00000000
     10.54057143	     -6.68360671	     -2.19906876	    -13.81301621	      0.95484314	      0.92046701	      0.42548205	     25.29585090	     -1.16246387	     -3.19036879	     15.63683830	     15.63683830	      2.58690045	     12.47863131	     -2.15070485	      9.12714182	     -3.05195523	    -11.52555870	     20.99284621	     20.99284621	     19.13441283	    -14.95616655	      1.47924044	     -9.28112843	      5.58253146	      2.30085080	    -14.06972124	    -10.67690614	     -9.08514806	     29.61134934	     46.12237727	      0.00000000	      0.00000000	     43.68588057	    -24.04490258	    -13.03538526	     81.22523815	     48.57774391	      0.00000000	      0.00000000
     10.56400000	     -6.50041147	     -2.16093188	    -13.35081967	      0.95794592	      0.92019879	      0.42992643	     25.21864278	     -1.07652413	     -2.66635405	     17.16699777	     17.16699777	      3.09873767	     10.88743256	     -3.26243166	      8.28691956	     -3.10616707	    -11.21336401	     20.78189215	     20.78189215	     19.38122096	    -14.73850274	      1.56521240	     -9.14028979	      5.65265572	      2.23428884	    -13.83375072	    -10.83695897	     -8.95672985	     29.54423530	     46.11995630	      0.00000000	      0.00000000	     43.51632635	    -23.78160505	    -13.05177187	     81.56237397	     48.57560321	      0.00000000	      0.00000000
